HIERARCHY
ROOT ui
{
	 OFFSET 0 0 0
	 CHANNELS 3 XPosition YPosition Z Position
	 EndSite
	 {
	 OFFSET 0 -1 0
	 }
}
ROOT li
{
	 OFFSET 0 0 0
	 CHANNELS 3 XPosition YPosition Z Position
	 EndSite
	 {
	 OFFSET 0 -1 0
	 }
}
ROOT ul
{
	 OFFSET 0 0 0
	 CHANNELS 3 XPosition YPosition Z Position
	 EndSite
	 {
	 OFFSET 0 -1 0
	 }
}
ROOT ll
{
	 OFFSET 0 0 0
	 CHANNELS 3 XPosition YPosition Z Position
	 EndSite
	 {
	 OFFSET 0 -1 0
	 }
}
ROOT tt
{
	 OFFSET 0 0 0
	 CHANNELS 3 XPosition YPosition Z Position
	 EndSite
	 {
	 OFFSET 0 -1 0
	 }
}
ROOT tb
{
	 OFFSET 0 0 0
	 CHANNELS 3 XPosition YPosition Z Position
	 EndSite
	 {
	 OFFSET 0 -1 0
	 }
}
ROOT td
{
	 OFFSET 0 0 0
	 CHANNELS 3 XPosition YPosition Z Position
	 EndSite
	 {
	 OFFSET 0 -1 0
	 }
}
ROOT v
{
	 OFFSET 0 0 0
	 CHANNELS 3 XPosition YPosition Z Position
	 EndSite
	 {
	 OFFSET 0 -1 0
	 }
}
ROOT bn
{
	 OFFSET 0 0 0
	 CHANNELS 3 XPosition YPosition Z Position
	 EndSite
	 {
	 OFFSET 0 -1 0
	 }
}
MOTION
Frames: 24
Frame Time: 0.002
0.001290181040763855	-0.0015151790380477906	0		0.48512957763671877	-2.52916015625	0		-1.184068115234375	-0.12926019287109375	0		-0.7744873046875	-2.3205859375	0		0.8483802490234374	-0.7051062622070312	0		2.495640869140625	-0.23621142578125	0		4.0890634765625	0.2426056365966797	0		5.5736083984375	0.22126844787597658	0		-0.4464720458984375	5.8630009765625	0		
-0.00155868399143219	0.006874364852905273	0		0.4321515808105469	-2.524923583984375	0		-1.1840740966796874	-0.1298968505859375	0		-0.74059375	-2.3248125	0		0.8414835815429688	-0.6986649169921875	0		2.453724609375	-0.2312036590576172	0		4.09392724609375	0.23377845764160157	0		5.56944677734375	0.2374100341796875	0		-0.44635748291015626	5.862349609375	0		
-0.009520176887512208	0.008348481178283691	0		0.48502642822265624	-2.530503173828125	0		-1.2200513916015625	-0.12891835021972656	0		-0.77458203125	-2.321877685546875	0		0.8601265258789063	-0.719667724609375	0		2.462669921875	-0.23507052612304688	0		4.093934814453125	0.2330318603515625	0		5.5765419921875	0.23058341979980468	0		-0.43208233642578125	5.87045458984375	0		
0.004364482879638672	4.5418301224708555E-4	0		0.45784811401367187	-2.53870361328125	0		-1.202981201171875	-0.12584103393554688	0		-0.7627446899414062	-2.32972216796875	0		0.8713400268554687	-0.70753125	0		2.4969072265625	-0.2223616943359375	0		4.10113427734375	0.24317124938964843	0		5.5787705078125	0.24127494812011718	0		-0.43099020385742187	5.867791015625	0		
0.001511104941368103	0.007865295886993409	0		0.4931272888183594	-2.520956298828125	0		-1.209870849609375	-0.12033670043945313	0		-0.7695582275390624	-2.3172275390625	0		0.8585598754882813	-0.6949664306640625	0		2.456797119140625	-0.22936247253417968	0		4.104181640625	0.2443980712890625	0		5.5723935546875	0.245435546875	0		-0.4328121032714844	5.8701943359375	0		
-0.006444059848785401	0.009386666297912597	0		0.48796783447265624	-2.52849462890625	0		-1.179989013671875	-0.1284442596435547	0		-0.7387190551757813	-2.32536083984375	0		0.86317626953125	-0.7176817626953125	0		2.4808154296875	-0.22943905639648438	0		4.1049716796875	0.23068733215332032	0		5.56946044921875	0.23219688415527343	0		-0.445859375	5.85981201171875	0		
0.004390221118927002	-0.0013881529569625855	0		0.48792898559570314	-2.5290908203125	0		-1.1799833984375	-0.1290093994140625	0		-0.7747315673828125	-2.324314453125	0		0.8414497680664063	-0.701908203125	0		2.456805419921875	-0.23065847778320311	0		4.0891240234375	0.23829872131347657	0		5.5736201171875	0.21352963256835938	0		-0.445742919921875	5.8592333984375	0		
-0.0015172109603881836	0.0031608240604400636	0		0.487890380859375	-2.52965283203125	0		-1.1840484619140625	-0.13347291564941408	0		-0.7747666015625	-2.3248544921875	0		0.8572682495117188	-0.7127508544921874	0		2.480820556640625	-0.23066886901855468	0		4.1098720703125	0.22231398010253905	0		5.5765615234375	0.22439518737792968	0		-0.431482177734375	5.86744482421875	0		
-0.0015153659582138061	0.0026440958976745605	0		0.43901394653320314	-2.520333251953125	0		-1.2098551025390625	-0.12252353668212891	0		-0.7717337036132812	-2.3214111328125	0		0.8713082275390625	-0.7105234375	0		2.450926513671875	-0.2247088623046875	0		4.101189453125	0.23988352966308593	0		5.5724052734375	0.2408244171142578	0		-0.4313857116699219	5.86693505859375	0		
0.0015329170227050782	0.005114950180053711	0		0.4918969116210937	-2.5257314453125	0		-1.1728828125	-0.12462158203125	0		-0.7717708740234375	-2.321876708984375	0		0.8526256713867187	-0.6916878051757812	0		2.48389794921875	-0.22679147338867187	0		4.10810205078125	0.2342263641357422	0		5.56946337890625	0.22787156677246093	0		-0.4313028259277344	5.86646435546875	0		
-0.00152756404876709	0.001732342004776001	0		0.43893182373046874	-2.52125732421875	0		-1.21699072265625	-0.13027976989746093	0		-0.7738446044921875	-2.3242666015625	0		0.844453125	-0.7009942626953125	0		2.492832763671875	-0.2304139099121094	0		4.10809619140625	0.23373782348632813	0		5.5758740234375	0.22672624206542968	0		-0.4322179260253906	5.86705224609375	0		
-0.0015437289476394652	0.0013408499956130981	0		0.48977548217773437	-2.528534912109375	0		-1.18408251953125	-0.13522752380371095	0		-0.7749217529296875	-2.3266318359375	0		0.8413775024414063	-0.7043430786132813	0		2.4838671875	-0.2276786651611328	0		4.1049794921875	0.22735220336914064	0		5.56530029296875	0.24541647338867187	0		-0.43216714477539064	5.866666015625	0		
-0.004636487007141113	-0.0029539620876312257	0		0.43678659057617186	-2.524970458984375	0		-1.21703369140625	-0.1309928283691406	0		-0.774968505859375	-2.326971435546875	0		0.8443980712890625	-0.7017509765625	0		2.45394921875	-0.22153205871582032	0		4.1011484375	0.23803228759765624	0		5.57651953125	0.22002752685546875	0		-0.43115121459960937	5.8653056640625	0		
0.0014516730308532714	0.003638582944869995	0		0.4927426452636719	-2.52524609375	0		-1.20994677734375	-0.12440762329101562	0		-0.7719509887695313	-2.3233203125	0		0.8711830444335937	-0.7125264282226562	0		2.494030517578125	-0.21554837036132812	0		4.110857421875	0.2225251159667969	0		5.5723408203125	0.23690306091308594	0		-0.4301698913574219	5.8629892578125	0		
0.0014116359949111939	0.003381272077560425	0		0.44383132934570313	-2.516659423828125	0		-1.2099876708984374	-0.12465670013427735	0		-0.7699724731445312	-2.321607177734375	0		0.858365234375	-0.6995664672851563	0		2.453873779296875	-0.2221287841796875	0		4.1079921875	0.23229031372070313	0		5.5723115234375	0.23639340209960938	0		-0.4321177978515625	5.86576904296875	0		
0.0013638579845428468	0.003169280052185059	0		0.49158905029296873	-2.527703857421875	0		-1.1771104736328124	-0.12943309020996094	0		-0.7741019287109375	-2.3257451171875	0		0.844263671875	-0.7025402221679687	0		2.48371630859375	-0.228873291015625	0		4.10406787109375	0.23912371826171874	0		5.5651953125	0.24319252014160156	0		-0.44530426025390624	5.85578662109375	0		
-0.0017431859970092774	5.439700186252594E-5	0		0.4635435791015625	-2.526388427734375	0		-1.17716650390625	-0.12959506225585937	0		-0.7412595825195313	-2.33147998046875	0		0.90707421875	-0.7108021240234375	0		2.459628662109375	-0.2306356658935547	0		4.10966552734375	0.21883677673339844	0		5.5663583984375	0.2116647491455078	0		-0.44533319091796875	5.85562109375	0		
-0.0018065179586410523	-6.946200132369995E-5	0		0.4894150390625	-2.529964111328125	0		-1.2172763671875	-0.13202078247070312	0		-0.7752744140625	-2.32801220703125	0		0.8441390380859375	-0.70283837890625	0		2.487664306640625	-0.22525485229492187	0		4.1119150390625	0.236660400390625	0		5.57219189453125	0.23539198303222655	0		-0.4312210388183594	5.8642548828125	0		
-0.0018775579929351807	-1.5133699774742127E-4	0		0.44151705932617186	-2.519216796875	0		-1.2102274169921876	-0.12522145843505858	0		-0.77431787109375	-2.326109375	0		0.84406591796875	-0.7029227294921875	0		2.47369873046875	-0.21910231018066406	0		4.1118447265625	0.2365662841796875	0		5.56505859375	0.2424409942626953	0		-0.43127462768554686	5.86417431640625	0		
0.0010957289934158325	0.0027547550201416017	0		0.49435540771484376	-2.524177734375	0		-1.1733289794921875	-0.12690138244628907	0		-0.7723673706054688	-2.32418408203125	0		0.8649307861328125	-0.7063298950195313	0		2.490599853515625	-0.22044432067871095	0		4.11664453125	0.2294293212890625	0		5.5650029296875	0.24234652709960938	0		-0.44451025390625	5.85436083984375	0		
0.0010109139680862427	0.0027519989013671873	0		0.4922311706542969	-2.526146484375	0		-1.1734140625	-0.12690180969238282	0		-0.7755256958007812	-2.328132568359375	0		0.9098204345703125	-0.7081145629882812	0		2.4905146484375	-0.22045201110839843	0		4.1154912109375	0.22543634033203125	0		5.5684091796875	0.22833503723144533	0		-0.44556594848632813	5.8553759765625	0		
-0.0021313099861145018	-1.6174900531768798E-4	0		0.4890673828125	-2.53006103515625	0		-1.1775562744140624	-0.12979624938964843	0		-0.7756202392578125	-2.328097412109375	0		0.84075634765625	-0.7058858032226563	0		2.470357177734375	-0.22407496643066407	0		4.10750634765625	0.23160104370117188	0		5.56193798828125	0.23037733459472656	0		-0.44564678955078124	5.85541064453125	0		
-0.002227046012878418	-9.402500092983246E-5	0		0.4650583801269531	-2.524578369140625	0		-1.2136295166015625	-0.12810261535644532	0		-0.7417764282226562	-2.331617919921875	0		0.85343212890625	-0.7190427856445313	0		2.476138916015625	-0.23111376953125	0		4.11714892578125	0.2164917449951172	0		5.56895166015625	0.2232620391845703	0		-0.43061505126953126	5.8622177734375	0		
-0.0023268260955810545	4.869000054895878E-6	0		0.4680245666503906	-2.52053271484375	0		-1.1968707275390624	-0.1362959747314453	0		-0.8087301025390625	-2.322357177734375	0		0.8704330444335937	-0.7132406616210938	0		2.50045166015625	-0.2074376678466797	0		4.1242392578125	0.22746275329589843	0		5.5718193359375	0.23541018676757813	0		-0.4297254638671875	5.8612998046875	0		
